<svg width="129" height="30" viewBox="0 0 129 30" fill="none" xmlns="http://www.w3.org/2000/svg">
<g clip-path="url(#clip0_462_10529)">
<path fill-rule="evenodd" clip-rule="evenodd" d="M68.9907 8.28996C68.9907 9.24194 69.6729 9.87319 70.6198 9.87319H70.6707C71.755 9.87319 72.6765 9.19357 72.6765 8.04051C72.6765 7.06563 71.9994 6.43182 70.9532 6.43182C69.9071 6.43182 68.9907 7.18017 68.9907 8.28996ZM54.5946 6.8391C55.8417 6.58968 57.4807 6.43951 59.1961 6.43951C61.0414 6.43951 62.3674 6.66349 63.5356 7.30995C64.7063 7.88006 65.5641 8.97955 65.5641 10.3972C65.5641 12.5147 63.953 13.8586 62.0289 14.3778V14.4541C63.7188 14.9504 64.7852 16.2688 64.7852 18.1115C64.7852 19.9542 63.7697 21.2267 62.3903 22.0946C60.909 23.0643 58.6998 23.4639 55.7882 23.4639C53.8132 23.4639 52.2276 23.3417 51.3699 23.1687L54.592 6.8391H54.5946ZM56.9615 20.6515C56.4145 20.6515 55.9718 20.6515 55.5342 20.6032L56.4678 15.8489H57.6385C59.3794 15.8489 60.8327 16.3477 60.8327 18.0148C60.8327 19.8803 58.99 20.6515 56.9615 20.6515ZM57.0404 13.235H58.285C60.3389 13.235 61.7489 12.39 61.7489 10.9469C61.7489 9.75327 60.7309 9.22898 59.3005 9.22898C58.6515 9.22898 58.1068 9.27988 57.8192 9.32824L57.0404 13.235ZM65.9417 23.4639L68.3952 11.0997H72.106L69.6525 23.4639H65.9417ZM79.2704 7.84444L78.6265 11.1022H81.332L80.7644 13.8179H78.0844L77.2369 17.913C77.1325 18.3813 77.0282 19.0226 77.0282 19.4426C77.0282 20.0356 77.2852 20.4556 78.1124 20.4556C78.4229 20.4556 78.8072 20.4556 79.1152 20.4047L78.7029 23.1916C78.2168 23.3621 77.2852 23.4614 76.5115 23.4614C74.2693 23.4614 73.213 22.3746 73.213 20.8475C73.213 20.2061 73.2919 19.5393 73.4981 18.6027L75.4578 8.83195L79.2704 7.84189V7.84444ZM86.0278 23.4282C90.2756 23.4282 93.3705 20.2773 93.3705 15.9684C93.3705 13.2731 91.4566 11.1072 88.1657 11.1072C83.7932 11.1072 80.823 14.477 80.823 18.5441C80.823 21.4786 82.91 23.4282 86.0278 23.4282ZM86.5521 20.7813C85.2744 20.7813 84.5694 19.865 84.5694 18.4958L84.5669 18.4932C84.5669 16.6633 85.5977 13.7516 87.6847 13.7516C89.1176 13.7516 89.619 14.9097 89.619 15.9913C89.619 17.9893 88.4889 20.7813 86.5521 20.7813Z" fill="#3E3A39"/>
<path fill-rule="evenodd" clip-rule="evenodd" d="M98.3916 6.82631C99.4657 6.57689 101.064 6.42673 102.665 6.42673C104.266 6.42673 106.045 6.7525 107.172 7.62803C108.221 8.37884 108.799 9.48088 108.799 10.9825C108.799 12.9855 107.803 14.589 106.544 15.5637C105.129 16.6403 103.11 17.1672 101.013 17.1672C100.502 17.1672 100.043 17.1168 99.6355 17.0719L99.6354 17.0719C99.5414 17.0616 99.45 17.0515 99.3613 17.0425L98.104 23.4282H95.0906L98.3916 6.82886V6.82631ZM99.8322 14.6373C100.331 14.7366 100.776 14.7875 101.43 14.7875C104.027 14.7875 105.729 13.2095 105.729 11.2065C105.729 9.42998 104.393 8.77843 102.662 8.77843C101.901 8.77843 101.326 8.82933 100.985 8.92859L99.8322 14.6373ZM107.513 23.4282L107.514 23.4231H110.552L111.522 18.5161C112.021 15.9124 113.408 13.8102 115.584 13.8102C115.795 13.8102 116.004 13.8356 116.162 13.8611L116.765 11.008C116.556 10.9825 116.319 10.9571 116.111 10.9571C114.355 10.9571 112.965 12.1609 112.1 13.8127H112.021C112.143 12.9649 112.319 12.1554 112.488 11.3799L112.52 11.2345H109.661C109.508 12.3228 107.563 23.1542 107.514 23.4231H107.513V23.4282ZM121.151 23.4613C125.503 23.4613 128.542 19.9058 128.542 15.775H128.545C128.545 13.0721 126.735 10.7178 123.302 10.7178C118.95 10.7178 115.936 14.2988 115.936 18.4296C115.936 21.3336 117.926 23.4613 121.151 23.4613ZM121.571 21.2063C120.026 21.2063 119.082 20.0305 119.082 18.3532L119.079 18.3507C119.079 16.0728 120.495 12.9677 122.933 12.9677C124.793 12.9677 125.371 14.5203 125.371 15.7725C125.371 18.2005 123.852 21.2063 121.571 21.2063Z" fill="#666464"/>
<path fill-rule="evenodd" clip-rule="evenodd" d="M31.7963 0.00539466C27.1056 -0.142223 22.0204 2.75159 18.3453 7.22084H18.3402C18.1035 7.49317 17.8464 7.83167 17.5944 8.18035H20.4781C21.29 7.13176 22.1935 6.15188 23.1734 5.26109C25.8865 2.79486 28.961 1.2296 31.8319 0.858013C32.0533 0.830017 32.2162 0.636587 32.2035 0.412615C32.1933 0.191189 32.0151 0.0130301 31.7963 0.00539466ZM13.3772 18.4143H13.3797C13.082 21.0358 13.4281 23.4817 14.4309 25.4745C15.5431 27.7041 17.3832 29.2184 19.7349 29.8573C19.7706 29.8674 19.8087 29.8725 19.8469 29.8725C20.0174 29.8725 20.1778 29.7682 20.2414 29.6027C20.3203 29.4017 20.2414 29.1726 20.0505 29.0683C18.0755 27.9917 16.7189 26.0752 16.1259 23.525C15.7594 21.9292 15.7263 20.1425 16.0012 18.282C16.0547 17.969 16.1157 17.6432 16.187 17.3123H13.5299C13.4026 18.0071 13.3772 18.4118 13.3772 18.4118V18.4143ZM16.6324 15.5663H13.9371C14.8101 12.3823 16.4186 9.93138 16.4186 9.93138H19.2386C17.2916 13.0237 16.6324 15.5663 16.6324 15.5663ZM20.1345 2.16876C20.0225 1.92188 19.74 1.80226 19.4855 1.89643C17.0371 2.82795 14.7923 4.41102 12.9394 6.43185H10.4274C9.9438 6.43185 9.55185 6.8238 9.55185 7.30738C9.55185 7.79095 9.9438 8.1829 10.4274 8.1829H11.5141C10.2594 9.91868 9.27188 11.881 8.63815 13.9756C7.68372 17.1189 7.64555 20.1832 8.42945 22.7792L8.43963 22.8098H5.2124C4.72883 22.8098 4.33688 23.2017 4.33688 23.6853C4.33688 24.1689 4.72883 24.5608 5.2124 24.5608H9.12936C9.13699 24.5761 9.14208 24.5837 9.14463 24.5837C9.88526 26.0624 10.9389 27.3197 12.2853 28.2563C12.3769 28.3174 12.4762 28.348 12.5806 28.348C12.7256 28.348 12.8656 28.2869 12.97 28.1698C13.1405 27.9687 13.1328 27.6735 12.9547 27.4826C11.9774 26.4442 11.2291 25.1513 10.7379 23.642C9.85726 20.9238 9.86744 17.7755 10.7786 14.5381C11.4811 12.0337 12.7053 9.62344 14.3087 7.57716C15.907 5.53851 17.8413 3.8969 19.9054 2.84067C20.1447 2.71851 20.249 2.42327 20.137 2.17385L20.1345 2.16876ZM44.7663 4.27868C43.705 3.17918 42.3077 2.53272 40.6126 2.35965L40.6101 2.36474C40.3072 2.3342 39.9967 2.31638 39.6811 2.31638C36.5608 2.31638 32.9747 3.94272 29.9613 6.43695H36.9018C39.0932 6.43695 40.6661 6.56421 41.6001 6.778C42.9363 7.06814 43.8831 7.60516 44.4507 8.38906C45.0182 9.17296 45.2371 9.99759 44.8503 11.064C44.6008 11.7588 44.1809 12.39 43.5879 12.955C42.9974 13.5226 42.1753 14.052 41.1242 14.5483C42.3942 15.0675 43.2265 15.719 43.6159 16.5004C44.0078 17.2817 44.0129 18.2056 43.6286 19.272C43.257 20.2977 42.5698 21.2318 41.5645 22.0717C40.5643 22.9167 39.4393 23.5428 38.1871 23.9627C36.9375 24.3776 35.6114 24.5557 33.6721 24.5532H25.2426C24.759 24.5532 24.3671 24.1612 24.3671 23.6777C24.3671 23.1941 24.759 22.8021 25.2426 22.8021H27.3169L27.3321 22.7589L32.6133 8.17782L28.1262 8.18036C26.5355 9.8347 25.1815 11.7206 24.1533 13.7924L24.1431 13.8153H26.874C27.3576 13.8153 27.7495 14.2072 27.7495 14.6908C27.7495 15.1744 27.3576 15.5663 26.874 15.5663H23.3821L23.3719 15.5892C22.8069 17.0832 22.4735 18.5543 22.3717 19.9414C22.3411 20.3308 22.3284 20.7024 22.3361 21.0536H19.1088C19.1088 20.0432 19.2234 19.3611 19.2234 19.3611C19.4448 17.6126 19.9869 15.7598 20.8522 13.8764C24.3518 6.24607 31.9388 0.494071 38.5103 0.494071C38.8718 0.494071 39.2306 0.511887 39.5818 0.547519C42.0404 0.802032 44.0078 1.92443 45.2855 3.7951C45.344 3.85619 45.3797 3.94018 45.3797 4.03435C45.3797 4.22778 45.2219 4.38812 45.0284 4.38812H45.0233C44.9266 4.38812 44.835 4.34994 44.7663 4.27868ZM37.8232 9.65908H35.6954L34.3007 13.5048H36.2503C37.3625 13.5048 38.2584 13.3266 38.9277 12.9703C39.5946 12.614 40.04 12.1329 40.2665 11.5196C40.4701 10.9495 40.3759 10.4964 39.9865 10.1605C39.592 9.82706 38.8743 9.65908 37.8232 9.65908ZM38.6961 17.2843C38.0853 16.8313 36.8789 16.6022 35.0795 16.6022H33.1834L31.4909 21.2725H33.5855C35.4816 21.2725 36.8255 21.0969 37.6221 20.7304C38.4136 20.369 38.9379 19.8396 39.1874 19.1448C39.4699 18.3583 39.3095 17.7373 38.6961 17.2843ZM19.2233 22.8047L19.2235 22.8072H19.2233V22.8047ZM19.2235 22.8072H22.5066C23.6239 28.3353 28.3985 28.5465 30.4321 28.3353C32.4682 28.124 34.2752 27.307 34.5756 27.1518C34.8759 26.9965 35.0362 27.1976 35.0362 27.1976C35.0362 27.1976 35.1482 27.2918 35.138 27.475C35.1279 27.6557 34.9599 27.7524 34.9599 27.7524C29.9587 30.603 26.3599 29.9311 26.3599 29.9311C19.7413 29.1663 19.2344 22.9513 19.2235 22.8072ZM0.875525 13.8178H6.04977C6.53335 13.8178 6.9253 14.2098 6.9253 14.6933C6.9253 15.1769 6.53335 15.5689 6.04977 15.5689H0.875525C0.39195 15.5689 0 15.1769 0 14.6933C0 14.2098 0.39195 13.8178 0.875525 13.8178Z" fill="#315FEE"/>
</g>
<defs>
<clipPath id="clip0_462_10529">
<rect width="128.571" height="30" fill="white"/>
</clipPath>
</defs>
</svg>
